<?xml version="1.0" standalone="no"?>
<!DOCTYPE svg PUBLIC "-//W3C//DTD SVG 20010904//EN"
 "http://www.w3.org/TR/2001/REC-SVG-20010904/DTD/svg10.dtd">
<svg version="1.0" xmlns="http://www.w3.org/2000/svg"
 width="2000.000000pt" height="2000.000000pt" viewBox="0 0 2000.000000 2000.000000"
 preserveAspectRatio="xMidYMid meet">

<g transform="translate(0.000000,2000.000000) scale(0.100000,-0.100000)"
fill="#000000" stroke="none">
<path d="M0 18535 c0 -895 4 -1465 9 -1465 18 0 41 -31 41 -55 0 -13 -11 -32
-25 -43 l-25 -20 0 -1097 c0 -1013 1 -1099 17 -1110 22 -16 22 -74 0 -90 -16
-11 -17 -323 -17 -4495 l0 -4482 25 6 c19 5 32 0 50 -18 32 -32 31 -50 -1 -82
-18 -19 -31 -24 -50 -20 l-24 6 0 -2785 0 -2785 8985 0 c7884 0 8985 2 8985
15 0 8 9 19 20 25 24 13 60 -3 60 -25 0 -13 125 -15 975 -15 l975 0 0 8031 c0
7107 -2 8030 -15 8019 -19 -15 -61 -6 -69 16 -8 20 19 64 39 64 7 0 21 -7 29
-16 15 -14 16 80 16 1029 0 916 -2 1046 -15 1057 -19 16 -19 59 0 66 13 5 15
111 15 870 l0 864 -4032 0 c-3501 -1 -4030 -3 -4008 -15 14 -8 39 -14 57 -15
25 0 31 -4 27 -15 -4 -10 0 -15 12 -15 18 -1 18 -1 1 -14 -14 -11 -15 -15 -4
-19 8 -3 18 -20 22 -39 l8 -33 7 40 6 40 8 -37 c9 -40 22 -49 29 -20 2 9 2 -9
-1 -40 -3 -32 -1 -58 4 -58 11 0 5 -91 -6 -104 -5 -5 -6 17 -3 48 4 37 2 56
-5 56 -6 0 -13 12 -15 28 -2 15 -2 2 0 -28 5 -53 -8 -63 -20 -15 -3 11 -5 4
-4 -15 0 -19 -9 -54 -20 -77 -12 -24 -19 -52 -16 -63 4 -13 -1 -26 -12 -34
-23 -17 -13 -48 12 -40 12 4 14 3 6 -3 -19 -14 -12 -73 9 -73 13 0 20 -11 24
-40 4 -22 10 -40 14 -40 3 0 1 -28 -6 -62 -8 -35 -14 -75 -14 -90 0 -16 -4
-28 -10 -28 -5 0 -10 5 -10 10 0 6 -7 10 -16 10 -8 0 -12 -4 -9 -10 3 -5 1
-10 -5 -10 -7 0 -10 -7 -6 -15 3 -8 -4 -21 -16 -29 -12 -9 -17 -19 -13 -27 5
-8 4 -10 -3 -5 -7 4 -12 1 -12 -9 0 -10 5 -13 11 -9 9 5 10 -1 5 -20 -4 -16
-2 -26 5 -26 6 0 9 -7 5 -15 -3 -9 0 -15 9 -15 8 0 23 -9 34 -21 17 -18 22
-19 42 -7 13 7 27 17 30 22 13 17 42 -3 36 -25 -4 -15 -1 -19 11 -17 9 1 23
-1 30 -6 7 -4 18 -3 25 2 12 10 39 -9 36 -25 -1 -4 7 -12 17 -18 11 -5 21 -11
24 -13 2 -2 -2 -7 -10 -12 -11 -7 -4 -10 25 -11 22 0 35 -3 28 -6 -18 -7 7
-43 30 -43 10 0 16 -4 13 -9 -4 -5 -1 -11 5 -13 5 -2 12 -19 14 -38 2 -19 7
-54 10 -77 4 -27 2 -43 -5 -43 -5 0 -10 -9 -10 -19 0 -10 -9 -29 -19 -42 -18
-22 -22 -23 -62 -12 -37 10 -45 9 -52 -3 -8 -14 -33 -13 -71 2 -18 7 -18 8 0
21 22 16 4 17 -31 1 -16 -7 -29 -8 -33 -2 -15 20 -53 34 -77 28 -15 -4 -25 -2
-25 5 0 6 -7 11 -15 11 -8 0 -15 5 -15 10 0 15 -29 12 -47 -5 -8 -8 -20 -12
-26 -8 -7 4 -19 6 -28 5 -9 -2 -39 9 -66 23 -28 14 -54 25 -59 25 -4 0 -17 8
-28 18 -21 17 -21 17 -3 -4 32 -38 16 -84 -29 -84 -30 0 -43 20 -41 62 2 29 5
34 15 25 9 -7 7 2 -4 26 -12 25 -20 33 -25 25 -6 -10 -11 -10 -20 -1 -8 8 -9
16 -2 25 6 7 13 24 16 38 9 36 54 80 88 87 16 3 29 9 29 14 0 5 7 9 16 9 10 0
14 6 10 15 -4 10 1 15 14 15 11 0 19 3 18 8 -2 4 7 17 20 30 12 12 22 31 22
41 0 11 2 25 5 33 5 12 -36 38 -60 38 -7 0 -25 -11 -41 -25 -15 -13 -30 -22
-33 -20 -2 3 -15 -2 -28 -10 -21 -14 -24 -14 -29 0 -8 19 -33 19 -60 0 -18
-12 -26 -12 -48 -2 -21 10 -26 18 -25 42 5 69 -40 124 -103 125 -31 0 -38 4
-38 20 0 17 -4 18 -25 10 -15 -6 -26 -6 -30 0 -4 6 0 12 7 14 35 11 40 16 15
12 -28 -3 -45 8 -27 19 6 4 7 13 1 23 -4 9 -6 29 -4 45 3 20 0 27 -14 27 -15
0 -15 2 3 15 17 13 11 14 -61 11 -44 -2 -66 -2 -50 0 58 9 76 15 69 25 -3 6
-16 8 -29 5 -14 -4 -28 0 -35 9 -7 8 -20 15 -29 15 -10 0 -17 9 -18 26 0 15
-6 30 -13 34 -9 6 -9 9 1 13 12 5 12 6 0 6 -11 1 -11 4 -1 16 7 9 14 23 15 33
3 29 16 52 31 52 8 0 14 4 14 10 0 5 12 13 27 16 25 7 25 8 8 15 -15 6 -10 8
20 10 22 1 58 1 79 0 23 -2 42 2 47 10 6 10 11 10 22 1 11 -10 19 -8 39 8 14
10 28 17 32 15 3 -3 4 -2 1 1 -2 4 1 16 7 28 6 12 -3 6 -21 -13 -17 -19 -31
-29 -31 -22 0 7 -9 11 -21 9 -14 -2 -29 7 -42 24 -26 35 -15 75 25 97 25 14
29 14 55 -5 15 -12 29 -31 31 -43 2 -11 6 -21 9 -21 2 0 24 20 48 45 29 30 43
51 40 65 -2 11 1 19 8 17 7 -1 11 5 9 13 -2 8 0 12 3 8 12 -12 67 21 59 35 -4
7 -4 9 0 5 4 -3 20 -2 36 2 23 7 28 5 23 -6 -5 -14 -18 -18 -38 -14 -5 1 -1
-8 9 -19 16 -18 36 -20 36 -5 0 3 -4 3 -9 -1 -5 -3 -12 -1 -16 5 -5 9 6 14 25
12 3 0 7 10 8 24 l2 24 -5379 0 c-4772 0 -5380 -2 -5391 -15 -16 -19 -59 -19
-66 0 -5 13 -66 15 -465 15 l-459 0 0 -1465z m19280 1405 c24 -24 25 -48 4
-78 -32 -46 -114 -17 -114 40 0 26 36 58 65 58 14 0 34 -9 45 -20z m-7972 -28
c3 -16 -2 -22 -17 -22 -24 0 -33 13 -25 35 9 23 38 14 42 -13z m-248 -52 c15
-28 -4 -60 -35 -60 -31 0 -50 32 -35 60 6 12 21 20 35 20 14 0 29 -8 35 -20z
m-9016 -52 c15 -24 -3 -52 -37 -56 -33 -4 -53 28 -37 59 14 25 58 23 74 -3z
m11664 -70 c17 -15 15 -74 -4 -92 -8 -9 -28 -16 -44 -16 -36 0 -60 23 -60 59
0 60 60 87 108 49z m-3510 -16 c3 -16 -2 -22 -16 -22 -24 0 -35 23 -19 39 16
16 31 8 35 -17z m-7850 -29 c5 -17 -26 -29 -40 -15 -6 6 -7 15 -3 22 9 14 37
9 43 -7z m9750 -39 c4 2 7 -9 8 -25 1 -16 -3 -29 -7 -29 -5 0 -9 -8 -10 -17 0
-15 -2 -15 -9 2 -12 28 -11 56 1 30 7 -15 8 -8 5 25 -2 25 -2 37 1 27 2 -9 8
-15 11 -13z m-1467 -75 c27 -27 21 -66 -12 -92 -32 -23 -62 -16 -85 18 -41 62
44 127 97 74z m7604 -4 c0 -28 -29 -25 -33 3 -3 19 0 23 15 20 10 -2 18 -12
18 -23z m-11977 -23 c2 -14 -2 -22 -12 -22 -19 0 -29 17 -22 36 8 22 30 12 34
-14z m7310 -4 c16 -16 15 -25 -3 -25 -8 0 -13 3 -10 5 3 3 -3 11 -13 18 -14
11 -15 13 -1 14 8 0 20 -5 27 -12z m-712 -39 c10 -17 -13 -36 -27 -22 -12 12
-4 33 11 33 5 0 12 -5 16 -11z m-8718 -16 c5 -17 -26 -29 -40 -15 -6 6 -7 15
-3 22 9 14 37 9 43 -7z m10160 -85 c-2 -13 -10 -23 -18 -23 -8 0 -16 10 -18
23 -3 17 2 22 18 22 16 0 21 -5 18 -22z m-5643 -33 c30 -29 32 -58 4 -86 -28
-28 -79 -23 -98 12 -18 32 -8 72 21 87 35 16 47 14 73 -13z m7525 11 c6 -8 10
-25 8 -38 -2 -19 -9 -23 -38 -23 -29 0 -36 4 -38 23 -4 28 14 52 38 52 10 0
23 -7 30 -14z m-4843 -25 c0 -11 -5 -17 -9 -15 -14 9 -9 -7 8 -23 12 -12 13
-18 3 -24 -10 -6 -10 -11 0 -23 11 -13 11 -16 0 -17 -11 0 -12 -2 -1 -6 18 -7
-35 -63 -59 -63 -10 0 -21 -5 -25 -12 -4 -7 -3 -8 4 -4 7 4 12 3 12 -2 0 -6
-7 -12 -15 -16 -8 -3 -15 -9 -14 -13 3 -19 -2 -33 -12 -33 -8 0 -8 5 1 15 9
10 9 15 1 15 -6 0 -10 3 -10 8 3 19 -2 32 -12 32 -8 0 -8 -5 1 -15 9 -11 9
-15 1 -15 -7 0 -9 -5 -5 -11 10 -16 12 -90 3 -119 -4 -14 -8 -19 -8 -12 -1 7
-6 10 -11 7 -8 -5 -8 -11 0 -20 8 -10 8 -19 -2 -34 -13 -21 -28 -28 -28 -13 0
4 6 14 13 22 10 12 9 12 -5 1 -10 -7 -18 -10 -18 -5 0 5 -4 4 -8 -1 -14 -21
-69 -54 -88 -54 -10 0 -38 -3 -62 -7 -34 -5 -42 -10 -38 -23 4 -11 1 -10 -9 4
-14 18 -14 20 2 27 15 6 15 7 -4 7 -12 1 -29 10 -37 22 -8 12 -19 18 -25 15
-7 -5 -8 -1 -4 10 5 15 0 16 -45 12 -28 -3 -49 -1 -46 4 3 4 15 8 27 9 17 1
15 3 -11 11 -26 9 -36 8 -52 -7 -18 -16 -20 -16 -49 4 -16 12 -35 20 -43 18
-7 -2 -10 -2 -6 0 8 5 -11 43 -25 54 -5 3 -2 21 7 40 8 19 15 28 15 22 1 -20
19 -15 26 7 3 11 13 20 21 20 8 0 14 6 14 13 0 8 3 8 9 -2 8 -12 11 -12 25 1
8 9 31 19 50 22 20 4 39 13 43 20 5 7 25 21 46 31 29 14 43 15 61 7 13 -6 29
-7 37 -1 15 9 58 2 74 -12 14 -13 25 -11 25 5 0 21 49 16 65 -6 7 -11 18 -17
24 -14 10 6 61 -41 61 -56 0 -5 4 -8 8 -8 4 0 8 9 8 19 0 11 -4 17 -8 15 -13
-9 -39 55 -32 81 8 32 37 48 79 43 33 -4 33 -3 29 29 -3 24 0 33 10 33 8 0 14
-9 13 -19z m4205 2 c37 -33 8 -113 -41 -113 -30 0 -63 33 -63 63 0 57 63 87
104 50z m-4376 -120 c-4 -4 -11 -1 -16 7 -16 25 -11 35 7 17 9 -9 13 -20 9
-24z m-5628 1 c44 -30 19 -114 -35 -114 -44 0 -79 60 -55 96 9 13 43 33 57 34
6 0 21 -7 33 -16z m5292 -24 c0 -5 -5 -10 -11 -10 -5 0 -7 5 -4 10 3 6 8 10
11 10 2 0 4 -4 4 -10z m8638 -23 c2 -12 -3 -17 -17 -17 -12 0 -21 6 -21 13 0
31 32 34 38 4z m-18800 -53 c4 -27 -21 -47 -48 -39 -20 6 -28 44 -13 59 15 15
58 1 61 -20z m7920 -36 c18 -18 15 -36 -9 -48 -29 -16 -63 13 -48 41 11 22 39
25 57 7z m-3680 -27 c63 -34 82 -138 36 -199 -53 -69 -134 -78 -199 -21 -63
56 -66 145 -7 203 47 44 107 51 170 17z m8712 -30 c0 -14 -18 -23 -30 -16 -6
4 -8 11 -5 16 8 12 35 12 35 0z m-3116 -53 c22 -32 20 -55 -9 -83 -29 -30 -58
-32 -85 -5 -24 24 -26 67 -3 92 23 26 78 24 97 -4z m3394 -5 c5 -17 -26 -29
-40 -15 -6 6 -7 15 -3 22 9 14 37 9 43 -7z m-3128 -12 c0 -5 -11 -16 -24 -24
-22 -15 -24 -15 -29 3 -3 12 0 17 8 14 7 -3 16 -1 20 5 8 13 25 14 25 2z
m7715 -31 c11 -13 16 -30 13 -50 -3 -20 0 -30 8 -30 39 0 58 -68 27 -102 -38
-43 -109 -7 -101 52 3 16 0 30 -5 30 -21 0 -47 34 -47 61 0 55 68 80 105 39z
m-12223 -7 c20 -18 24 -73 6 -91 -7 -7 -25 -12 -42 -12 -59 0 -87 59 -46 100
24 24 57 26 82 3z m-5484 -61 c19 -24 14 -59 -10 -76 -44 -31 -88 -9 -88 44 0
53 64 74 98 32z m9812 -1 c0 -27 -19 -36 -37 -18 -18 18 -9 37 18 37 12 0 19
-7 19 -19z m8588 -28 c3 -28 -1 -33 -23 -39 -29 -7 -55 10 -55 35 0 25 22 42
50 39 20 -2 26 -9 28 -35z m-6808 7 c0 -5 -5 -10 -11 -10 -5 0 -7 5 -4 10 3 6
8 10 11 10 2 0 4 -4 4 -10z m1934 -66 c21 -20 20 -63 -1 -86 -35 -39 -103 -11
-103 43 0 36 24 59 60 59 16 0 36 -7 44 -16z m-3614 -30 c0 -19 -28 -30 -42
-16 -8 8 -8 15 1 26 14 17 41 10 41 -10z m2388 -21 c-5 -26 -38 -29 -38 -4 0
15 6 21 21 21 14 0 19 -5 17 -17z m-4228 -113 c0 -13 -7 -20 -20 -20 -13 0
-20 7 -20 20 0 13 7 20 20 20 13 0 20 -7 20 -20z m3153 -7 c-7 -2 -19 -2 -25
0 -7 3 -2 5 12 5 14 0 19 -2 13 -5z m871 -46 c38 -27 -2 -95 -41 -71 -25 16
-29 55 -7 71 10 7 21 13 24 13 3 0 14 -6 24 -13z m-726 -75 c3 -16 -2 -22 -17
-22 -24 0 -35 15 -27 36 9 23 40 13 44 -14z m-78 -32 c24 -24 24 -30 7 -54 -9
-12 -23 -17 -42 -14 -25 2 -31 8 -33 33 -3 19 2 33 14 42 24 17 30 17 54 -7z
m-4227 -71 c28 -15 37 -28 37 -56 0 -29 -33 -63 -62 -63 -55 0 -81 83 -36 114
27 19 33 19 61 5z m6441 -54 c3 -9 -1 -18 -10 -22 -19 -7 -28 2 -21 22 8 19
23 19 31 0z m-7590 -8 c38 -27 -2 -95 -41 -71 -25 16 -29 55 -7 71 10 7 21 13
24 13 3 0 14 -6 24 -13z m11542 -45 c24 -16 35 -51 23 -74 -16 -30 -28 -38
-61 -38 -49 0 -75 65 -41 102 16 18 59 24 79 10z m-6656 -62 c0 -5 -6 -10 -14
-10 -8 0 -18 5 -21 10 -3 6 3 10 14 10 12 0 21 -4 21 -10z m130 -49 c19 -14
38 -25 43 -23 4 1 7 -4 7 -12 0 -9 -9 -14 -20 -13 -11 1 -19 6 -16 12 2 6 -5
12 -15 12 -23 2 -24 -14 -3 -39 10 -10 19 -40 22 -68 4 -47 3 -50 -24 -60 -20
-8 -30 -8 -32 -1 -7 21 -30 12 -25 -9 4 -15 0 -20 -16 -20 -11 0 -21 5 -21 10
0 6 -13 10 -30 10 -16 0 -30 4 -30 9 0 5 -19 19 -42 31 -23 12 -50 31 -60 42
-10 12 -18 18 -18 14 0 -4 -7 -1 -15 8 -8 8 -15 17 -15 20 0 3 7 6 15 6 8 0
15 5 15 10 0 6 -17 10 -37 11 -33 0 -35 1 -15 9 12 5 22 14 22 19 0 6 -7 7
-17 4 -10 -4 -14 -2 -10 4 4 6 1 14 -5 16 -8 3 -5 6 5 6 10 1 27 -4 38 -9 15
-9 19 -7 20 7 0 11 3 13 6 6 7 -18 42 -16 49 2 4 8 12 15 20 15 8 0 14 -7 14
-15 0 -17 12 -19 26 -5 7 7 20 6 40 -4 51 -25 71 -28 71 -11 0 9 -9 15 -23 15
-32 0 -58 11 -45 19 21 13 87 -2 121 -28z m3028 7 c34 -34 -6 -90 -48 -68 -11
6 -20 12 -20 15 0 2 -3 10 -6 18 -12 32 48 61 74 35z m-13518 -19 c0 -12 -29
-24 -37 -16 -3 4 -3 13 0 21 6 16 37 11 37 -5z m85 -14 c0 -27 -3 -30 -30 -30
-21 0 -31 5 -33 18 -6 33 6 49 35 45 24 -3 28 -8 28 -33z m6235 -21 c0 -28
-25 -42 -49 -27 -23 15 -26 45 -6 59 25 18 55 0 55 -32z m-443 20 c8 -21 -13
-42 -28 -27 -13 13 -5 43 11 43 6 0 13 -7 17 -16z m4195 -41 c22 -20 23 -33 3
-33 -11 0 -15 -10 -14 -37 1 -32 2 -34 8 -13 3 14 12 26 20 28 10 2 12 -4 7
-20 -3 -13 -6 -35 -6 -50 0 -16 -13 -40 -35 -62 -19 -20 -35 -41 -35 -47 0 -6
-6 -9 -12 -6 -18 6 -48 -11 -48 -27 0 -8 -11 -21 -24 -29 -22 -15 -25 -14 -45
4 -24 22 -26 37 -10 73 9 20 9 29 -2 43 -11 15 -11 16 1 6 19 -18 30 -16 30 5
0 9 10 22 23 27 15 7 21 17 19 33 -2 15 2 22 12 22 9 0 16 -6 17 -12 0 -10 2
-10 5 -1 3 7 0 22 -6 34 -8 15 -9 19 -1 15 6 -4 11 -2 11 4 0 6 5 8 10 5 6 -3
10 1 10 10 0 18 20 44 34 45 5 0 18 -7 28 -17z m63 -130 c-3 -13 -9 -23 -14
-23 -13 0 -24 34 -12 38 6 2 11 19 11 37 0 18 3 42 8 52 9 23 16 -70 7 -104z
m-4347 81 c46 -32 17 -114 -40 -114 -26 0 -58 36 -58 65 0 29 32 65 58 65 10
0 28 -7 40 -16z m7462 -9 c7 -8 10 -25 6 -39 -8 -33 -42 -43 -67 -20 -23 21
-24 37 -3 58 20 20 48 20 64 1z m-3382 -58 c4 -20 -25 -34 -40 -19 -15 15 -1
44 19 40 10 -2 19 -11 21 -21z m4050 1 c-2 -13 -10 -23 -18 -23 -8 0 -16 10
-18 23 -3 17 2 22 18 22 16 0 21 -5 18 -22z m502 -38 c8 -14 8 -26 0 -40 -19
-35 -80 -20 -80 20 0 40 61 55 80 20z m-3946 -6 c10 -26 7 -41 -5 -24 -8 11
-12 12 -16 3 -2 -7 -9 -13 -14 -13 -6 0 -7 6 -2 13 4 6 8 15 9 20 3 15 4 17
13 17 5 0 12 -7 15 -16z m7323 -10 c9 -23 -13 -40 -32 -24 -12 10 -13 16 -4
26 15 18 28 18 36 -2z m-10077 -14 c0 -21 -24 -28 -35 -10 -8 14 3 30 21 30 8
0 14 -9 14 -20z m10995 -10 c0 -8 -8 -16 -17 -18 -13 -2 -18 3 -18 18 0 15 5
20 18 18 9 -2 17 -10 17 -18z m-19850 -35 c0 -27 -3 -30 -30 -30 -21 0 -31 5
-33 18 -6 33 6 49 35 45 24 -3 28 -8 28 -33z m7895 -39 c0 -8 -5 -18 -11 -22
-14 -8 -33 11 -25 25 10 16 36 13 36 -3z m2155 -76 c3 -5 -1 -10 -9 -10 -9 0
-16 5 -16 10 0 6 4 10 9 10 6 0 13 -4 16 -10z m-5737 -22 c17 -17 15 -53 -3
-68 -24 -20 -65 3 -65 34 0 37 43 59 68 34z m5772 4 c0 -5 24 -14 53 -21 28
-7 71 -21 94 -32 24 -10 48 -19 55 -19 9 0 8 -3 -2 -10 -10 -6 -11 -10 -2 -10
6 0 12 -8 12 -18 0 -10 9 -28 20 -40 11 -11 17 -27 14 -35 -3 -8 0 -18 5 -22
6 -3 9 -11 6 -16 -4 -5 4 -9 15 -9 19 0 21 -4 16 -27 -6 -25 -5 -26 8 -10 11
14 18 16 42 7 15 -6 37 -10 48 -9 34 2 42 -2 21 -11 -19 -8 -19 -9 2 -9 16 -1
20 -6 17 -23 -2 -13 -1 -17 2 -9 5 11 8 11 16 0 7 -11 9 -9 6 6 -5 26 23 53
47 45 17 -6 17 -7 -3 -12 -19 -5 -22 -11 -16 -35 4 -15 7 -30 6 -33 -1 -74 -2
-79 -19 -73 -11 4 -12 8 -5 11 22 7 13 48 -13 60 -24 11 -25 10 -25 -22 0 -33
-25 -106 -36 -106 -3 0 -3 4 1 9 3 5 1 12 -4 15 -5 3 -12 -2 -16 -11 -5 -16
-8 -15 -25 7 l-18 25 -8 -30 c-10 -37 -7 -55 14 -78 14 -15 14 -18 2 -15 -8 2
-18 7 -22 13 -4 5 -11 -1 -16 -14 -6 -16 -11 -20 -16 -13 -4 7 -12 10 -17 7
-5 -4 -9 2 -9 12 0 10 -5 25 -11 33 -8 11 -9 8 -4 -15 3 -16 8 -38 11 -47 3
-12 0 -18 -10 -18 -9 0 -13 7 -11 20 2 11 0 22 -4 24 -10 7 -8 -35 2 -51 5 -8
3 -13 -3 -13 -6 0 -13 7 -17 16 -5 13 -7 13 -14 2 -7 -10 -9 -9 -9 4 0 21 -16
32 -26 17 -4 -8 -3 -9 4 -5 7 4 12 1 12 -7 0 -16 34 -50 42 -41 3 3 9 0 14 -7
4 -7 3 -10 -2 -6 -16 10 -36 -9 -37 -36 -2 -19 -5 -23 -14 -15 -7 5 -28 8 -47
5 -20 -3 -33 -1 -30 4 3 5 10 6 16 3 7 -4 8 -2 4 5 -6 8 -12 9 -20 2 -7 -6
-15 -8 -18 -6 -3 3 -4 -14 -3 -37 2 -37 1 -40 -8 -20 -8 17 -15 21 -31 16 -12
-4 -23 -10 -26 -13 -8 -11 -112 -42 -119 -36 -8 9 21 25 49 26 21 1 22 2 5 6
-11 3 -24 9 -29 14 -5 5 -14 2 -20 -6 -6 -7 -28 -16 -49 -18 -20 -3 -48 -12
-62 -21 -13 -9 -31 -13 -39 -10 -11 4 -17 -3 -22 -22 -7 -27 -7 -27 -15 -6 -5
12 -15 22 -24 22 -8 0 -15 5 -15 12 0 6 -3 8 -7 5 -10 -10 -35 31 -27 45 5 7
10 4 15 -10 5 -12 15 -22 24 -22 19 0 20 16 0 24 -8 3 -15 9 -15 14 0 14 76
92 90 92 10 0 11 3 3 11 -12 12 -34 -3 -86 -58 -34 -37 -42 -40 -51 -18 -3 8
-1 14 3 12 9 -2 55 37 82 70 16 20 15 22 -29 59 -25 22 -58 48 -73 59 -22 17
-24 22 -13 33 9 9 26 11 50 6 22 -4 31 -10 24 -14 -7 -4 -8 -10 -3 -13 6 -4
18 0 29 7 17 13 15 15 -21 25 -22 6 -51 11 -65 12 -22 1 -22 2 7 10 31 9 54
29 34 29 -6 0 -11 5 -11 10 0 6 12 10 28 10 34 1 60 20 54 40 -3 8 -19 27 -35
41 l-31 26 45 26 c24 15 53 40 64 57 19 28 32 35 63 31 6 -1 12 7 12 17 0 10
11 24 26 30 20 10 24 17 19 35 -5 19 -5 20 5 4 9 -14 15 -16 26 -6 11 9 14 8
15 -2 0 -8 4 -4 10 9 9 24 -1 43 -31 55 -12 4 -12 6 2 6 9 1 24 -7 34 -16 15
-16 17 -16 30 2 8 10 14 22 14 27 0 4 5 8 10 8 6 0 10 -4 10 -8z m3273 -16 c8
-19 -15 -37 -32 -26 -17 10 -7 40 13 40 7 0 16 -6 19 -14z m-1928 -6 c3 -6 -1
-7 -9 -4 -18 7 -21 14 -7 14 6 0 13 -4 16 -10z m1313 -12 c5 -7 13 -23 16 -35
10 -32 -35 -77 -67 -68 -69 21 -59 115 12 115 16 0 33 -6 39 -12z m2992 -8 c0
-13 -7 -20 -20 -20 -19 0 -27 20 -13 33 13 14 33 6 33 -13z m-7412 -24 c5 -45
-47 -65 -68 -26 -16 31 4 62 38 58 21 -2 28 -9 30 -32z m300 11 c4 -20 -25
-34 -40 -19 -15 15 -1 44 19 40 10 -2 19 -11 21 -21z m710 1 c27 -27 7 -78
-29 -78 -23 0 -49 38 -41 59 11 31 48 41 70 19z m582 -13 c0 -8 -2 -15 -4 -15
-2 0 -6 7 -10 15 -3 8 -1 15 4 15 6 0 10 -7 10 -15z m-8527 -10 c-3 -9 -8 -14
-10 -11 -3 3 -2 9 2 15 9 16 15 13 8 -4z m5802 -14 c3 -5 2 -12 -3 -15 -5 -3
-9 1 -9 9 0 17 3 19 12 6z m2754 -12 c-22 -13 -31 -11 -17 5 7 8 17 12 22 9 4
-3 2 -9 -5 -14z m378 -6 c-4 -3 -2 -12 4 -20 8 -9 8 -13 1 -13 -6 0 -14 5 -17
10 -6 10 2 30 12 30 4 0 3 -3 0 -7z m5087 -9 c36 -35 7 -104 -42 -104 -54 0
-81 62 -45 102 20 22 66 24 87 2z m-5589 -4 c3 -5 -1 -10 -9 -10 -9 0 -16 5
-16 10 0 6 4 10 9 10 6 0 13 -4 16 -10z m62 -6 c-3 -3 -12 -4 -19 -1 -8 3 -5
6 6 6 11 1 17 -2 13 -5z m477 -5 c-3 -6 0 -16 7 -21 12 -8 11 -9 -1 -5 -18 4
-27 37 -10 37 6 0 8 -5 4 -11z m6306 -39 c0 -13 -7 -20 -20 -20 -13 0 -20 7
-20 20 0 13 7 20 20 20 13 0 20 -7 20 -20z m-6300 -14 c0 -3 -4 -8 -10 -11 -5
-3 -10 -1 -10 4 0 6 5 11 10 11 6 0 10 -2 10 -4z m7014 -28 c16 -26 -4 -53
-40 -53 -23 0 -30 5 -32 23 -2 13 -1 30 2 38 8 20 56 14 70 -8z m-16024 -29
c0 -12 -69 -43 -78 -35 -3 3 3 15 13 26 19 21 65 28 65 9z m15702 -14 c14 -30
-3 -55 -37 -55 -12 0 -28 7 -35 15 -20 24 3 65 35 65 17 0 29 -8 37 -25z
m-6485 9 c-3 -3 -12 -4 -19 -1 -8 3 -5 6 6 6 11 1 17 -2 13 -5z m1966 -20 c9
-10 -4 -34 -18 -34 -17 0 -28 17 -20 30 7 11 28 13 38 4z m5545 -76 c34 -34
-6 -90 -48 -68 -35 19 -20 80 20 80 9 0 21 -5 28 -12z m-9770 -39 c4 -19 -27
-34 -41 -20 -14 14 0 43 20 39 10 -2 19 -10 21 -19z m-2881 -5 c8 -21 -13 -42
-28 -27 -13 13 -5 43 11 43 6 0 13 -7 17 -16z m5261 -16 c-2 -15 -10 -23 -23
-23 -13 0 -21 8 -23 23 -3 18 1 22 23 22 22 0 26 -4 23 -22z m2102 -28 c24
-24 24 -30 7 -54 -9 -12 -23 -17 -42 -14 -25 2 -31 8 -33 33 -3 19 2 33 14 42
24 17 30 17 54 -7z m-1320 -20 c24 -24 24 -30 7 -54 -9 -12 -23 -17 -42 -14
-25 2 -31 8 -33 33 -3 19 2 33 14 42 24 17 30 17 54 -7z m-4068 -5 c12 -16 9
-25 -6 -19 -18 7 -30 35 -13 31 7 -1 15 -6 19 -12z m9696 -22 c5 -17 -26 -29
-40 -15 -6 6 -7 15 -3 22 9 14 37 9 43 -7z m-753 -53 c0 -22 -39 -19 -43 3 -3
15 1 18 20 15 12 -2 23 -10 23 -18z m2383 -17 c5 -17 -26 -29 -40 -15 -6 6 -7
15 -3 22 9 14 37 9 43 -7z m-7803 -18 c30 -29 31 -45 4 -79 -23 -29 -54 -33
-87 -10 -28 19 -29 67 -2 94 27 27 56 25 85 -5z m8223 -2 c5 -17 -26 -29 -40
-15 -6 6 -7 15 -3 22 9 14 37 9 43 -7z m-12294 -15 c16 -26 -4 -53 -40 -53
-23 0 -30 5 -32 23 -2 13 -1 30 2 38 8 20 56 14 70 -8z m1921 -43 c30 -29 31
-45 4 -79 -25 -32 -61 -34 -89 -4 -27 30 -25 62 6 87 34 27 50 26 79 -4z
m1592 3 c-3 -8 -6 -5 -6 6 -1 11 2 17 5 13 3 -3 4 -12 1 -19z m3201 -156 c3
-17 -2 -22 -17 -22 -14 0 -21 6 -21 18 0 38 33 41 38 4z m-7138 -37 c10 -12
10 -21 2 -40 -19 -40 -82 -29 -82 15 0 37 55 55 80 25z m7480 -5 c0 -23 -35
-28 -43 -6 -7 18 1 26 25 26 11 0 18 -7 18 -20z m-13310 -15 c0 -8 -7 -15 -15
-15 -8 0 -15 7 -15 15 0 8 7 15 15 15 8 0 15 -7 15 -15z m12168 -101 c26 -18
30 -65 6 -88 -36 -37 -104 -7 -104 45 0 29 31 59 60 59 9 0 26 -7 38 -16z
m6195 2 c7 -18 -1 -26 -25 -26 -18 0 -25 20 -11 33 11 12 31 8 36 -7z m-4499
-25 c23 -25 13 -59 -20 -67 -30 -8 -54 11 -54 42 0 22 22 43 46 44 6 0 19 -9
28 -19z m864 -33 c35 -35 -15 -99 -53 -68 -30 25 -12 80 25 80 9 0 21 -5 28
-12z m-354 -39 c14 -11 26 -28 26 -36 0 -9 7 -21 17 -28 20 -15 9 -35 -20 -34
-12 0 -35 -3 -50 -7 -59 -14 -95 75 -45 110 29 21 40 20 72 -5z m-13589 -49
c17 -18 17 -21 1 -45 -9 -14 -23 -25 -31 -25 -17 0 -45 27 -45 45 0 17 27 45
44 45 7 0 21 -9 31 -20z m14382 -15 c141 -42 214 -176 174 -320 -16 -60 -44
-98 -96 -133 -67 -44 -134 -56 -218 -38 -133 27 -194 102 -184 224 11 148 94
251 222 273 22 3 43 7 46 8 3 0 28 -6 56 -14z m-7239 -38 c4 -20 -25 -34 -40
-19 -15 15 -1 44 19 40 10 -2 19 -11 21 -21z m-798 -22 c15 -18 5 -35 -21 -35
-12 0 -19 7 -19 18 0 33 20 42 40 17z m8350 -40 c0 -8 -9 -15 -20 -15 -20 0
-26 11 -13 23 12 13 33 7 33 -8z m-15410 -30 c26 -31 -13 -82 -44 -56 -21 18
-20 48 2 60 23 14 28 13 42 -4z m15887 -51 c8 -21 -13 -42 -28 -27 -13 13 -5
43 11 43 6 0 13 -7 17 -16z m863 -14 c40 -40 13 -100 -45 -100 -54 0 -78 51
-44 93 25 32 61 35 89 7z m-13630 -35 c13 -16 6 -35 -15 -35 -18 0 -28 17 -21
35 7 19 20 19 36 0z m4940 2 c0 -8 -3 -17 -7 -20 -9 -9 -34 13 -27 24 8 14 34
11 34 -4z m2447 -43 c9 -23 -13 -40 -32 -24 -12 10 -13 16 -4 26 15 18 28 18
36 -2z m-1247 -22 c43 -35 17 -112 -38 -112 -58 0 -87 82 -40 114 29 21 51 20
78 -2z m-3738 -129 c24 -21 23 -58 -2 -83 -53 -53 -136 14 -96 75 20 30 70 34
98 8z m11778 -23 c11 -11 20 -30 20 -42 -1 -78 -111 -86 -118 -9 -6 62 55 94
98 51z m-1760 -50 c0 -13 -7 -20 -20 -20 -13 0 -20 7 -20 20 0 13 7 20 20 20
13 0 20 -7 20 -20z m1622 -17 c39 -35 11 -103 -43 -103 -35 0 -59 24 -59 57 0
55 62 83 102 46z m-15564 -60 c5 -17 -26 -29 -40 -15 -6 6 -7 15 -3 22 9 14
37 9 43 -7z m16994 0 c38 -34 7 -103 -47 -103 -29 0 -65 32 -65 58 0 10 7 28
16 40 18 27 69 30 96 5z m-6987 -83 c9 -15 -14 -40 -31 -33 -22 8 -18 43 5 43
11 0 23 -5 26 -10z m-3605 -115 c15 -19 6 -61 -16 -69 -18 -7 -64 18 -64 35 0
42 54 65 80 34z m-640 -25 c28 -28 25 -64 -6 -89 -15 -12 -33 -21 -41 -21 -21
0 -63 46 -63 70 0 28 35 60 65 60 14 0 34 -9 45 -20z m4056 -36 c16 -24 16
-26 -3 -46 -40 -40 -95 11 -57 53 23 26 40 24 60 -7z m-8282 -37 c19 -26 19
-30 5 -55 -20 -37 -80 -43 -103 -10 -21 30 -20 50 5 77 27 29 66 24 93 -12z
m14592 2 c9 -15 -11 -33 -30 -26 -9 4 -13 13 -10 22 7 17 30 20 40 4z m1129 1
c9 -15 -14 -40 -31 -33 -22 8 -18 43 5 43 11 0 23 -5 26 -10z m-18807 -56 c46
-32 17 -104 -43 -104 -40 0 -55 16 -55 56 0 34 28 64 60 64 9 0 26 -7 38 -16z
m16895 -8 c8 -20 -20 -43 -35 -28 -14 14 -3 42 16 42 7 0 16 -6 19 -14z
m-4125 -128 c-3 -7 -11 -13 -18 -13 -7 0 -15 6 -17 13 -3 7 4 12 17 12 13 0
20 -5 18 -12z m-2946 -75 c22 -20 23 -61 1 -85 -34 -38 -103 -11 -103 40 0 54
62 81 102 45z m-4162 -33 c0 -13 -7 -20 -20 -20 -13 0 -20 7 -20 20 0 13 7 20
20 20 13 0 20 -7 20 -20z m10252 -31 c15 -20 17 -30 9 -52 -13 -34 -54 -52
-82 -36 -17 9 -25 6 -44 -15 -29 -31 -67 -34 -95 -6 -53 53 14 136 75 96 17
-11 25 -13 25 -5 0 7 8 21 17 31 24 26 71 20 95 -13z m512 5 c31 -31 13 -74
-31 -74 -21 0 -43 25 -43 49 0 14 29 41 45 41 7 0 21 -7 29 -16z m-807 -20 c8
-22 -18 -37 -36 -20 -7 8 -10 19 -7 25 10 16 36 13 43 -5z m3198 3 c13 -10 16
-21 11 -41 -6 -24 -11 -27 -39 -24 -25 2 -33 8 -35 26 -4 25 13 52 32 52 7 0
20 -6 31 -13z m-16341 -60 c38 -27 -2 -95 -41 -71 -25 16 -29 55 -7 71 10 7
21 13 24 13 3 0 14 -6 24 -13z m9081 -12 c30 -29 32 -58 5 -85 -41 -41 -110
-15 -110 42 0 33 31 68 60 68 12 0 32 -11 45 -25z m-9713 -22 c24 -21 23 -58
-2 -83 -24 -24 -48 -25 -78 -4 -26 18 -30 65 -6 88 20 21 63 20 86 -1z m16866
-80 c-5 -26 -38 -29 -38 -4 0 15 6 21 21 21 14 0 19 -5 17 -17z m-9140 -16 c2
-12 -3 -17 -17 -17 -12 0 -21 6 -21 13 0 31 32 34 38 4z m7466 7 c34 -33 8
-82 -38 -70 -33 8 -43 42 -20 67 21 23 37 24 58 3z m-12356 -22 c28 -37 -2
-102 -48 -102 -27 0 -60 35 -60 63 0 59 72 85 108 39z m10467 -2 c4 -6 1 -18
-6 -26 -11 -13 -14 -13 -27 0 -8 8 -11 19 -8 25 9 14 33 14 41 1z m-11644 -40
c32 -18 19 -80 -17 -80 -17 0 -44 28 -44 45 0 13 26 45 36 45 3 0 14 -5 25
-10z m7694 -20 c0 -22 -39 -19 -43 3 -3 15 1 18 20 15 12 -2 23 -10 23 -18z
m5025 -25 c7 -8 13 -26 13 -40 0 -36 -21 -55 -57 -55 -40 0 -56 16 -56 55 0
17 5 36 12 43 17 17 73 15 88 -3z m-2083 -81 c8 -21 -13 -42 -28 -27 -13 13
-5 43 11 43 6 0 13 -7 17 -16z m-10228 -80 c-15 -18 -28 -18 -36 2 -8 20 17
36 34 22 10 -8 10 -14 2 -24z m-3714 6 c4 -6 1 -17 -5 -26 -15 -18 -42 0 -33
22 6 16 29 19 38 4z m11113 -16 c34 -23 27 -83 -10 -104 -25 -13 -31 -13 -55
0 -37 20 -43 70 -14 99 25 25 49 27 79 5z m2010 -76 c18 -18 14 -46 -7 -58
-29 -15 -51 -2 -51 30 0 37 33 53 58 28z m-166 -85 c38 -34 11 -103 -41 -103
-32 0 -44 8 -60 38 -29 54 54 108 101 65z m4316 -49 c14 -25 3 -53 -24 -60
-42 -11 -72 34 -42 64 17 17 55 15 66 -4z m-5468 -14 c21 -38 -22 -80 -61 -60
-19 10 -27 59 -12 73 15 15 63 7 73 -13z m7035 -70 c38 -42 -19 -94 -59 -54
-22 21 -20 40 6 58 29 20 31 20 53 -4z m-1118 -16 c3 -8 1 -20 -5 -26 -15 -15
-43 8 -35 28 7 19 32 18 40 -2z m-5522 -84 c9 -15 -14 -40 -31 -33 -22 8 -18
43 5 43 11 0 23 -5 26 -10z m-6167 -32 c18 -18 14 -56 -7 -68 -26 -14 -50 -3
-57 26 -11 42 34 72 64 42z m606 -30 c41 -58 -10 -118 -79 -92 -37 15 -38 82
-1 106 23 16 65 8 80 -14z m7146 -28 c0 -13 -7 -20 -20 -20 -19 0 -27 20 -13
33 13 14 33 6 33 -13z m2458 -43 c4 -22 -27 -35 -38 -16 -10 15 7 42 24 36 6
-2 12 -11 14 -20z m2377 -23 c0 -10 -8 -20 -17 -22 -18 -3 -26 27 -11 42 12
11 28 0 28 -20z m-7405 -14 c0 -11 -6 -20 -14 -20 -18 0 -29 16 -21 30 11 18
35 11 35 -10z m4969 -106 c27 -34 26 -50 -4 -79 -29 -30 -58 -32 -85 -5 -39
39 -11 110 44 110 15 0 33 -11 45 -26z m-11171 -87 c2 -11 -3 -17 -16 -17 -24
0 -32 8 -25 26 7 20 37 13 41 -9z m-984 -19 c15 -24 -3 -52 -37 -56 -32 -4
-49 23 -36 56 7 18 15 23 35 20 15 -2 32 -11 38 -20z m3364 -1 c2 -12 -3 -17
-17 -17 -15 0 -21 6 -21 21 0 25 33 22 38 -4z m932 -37 c0 -13 -7 -20 -20 -20
-13 0 -20 7 -20 20 0 13 7 20 20 20 13 0 20 -7 20 -20z m1878 -22 c28 -28 1
-75 -38 -63 -14 4 -20 15 -20 35 0 37 33 53 58 28z m-9628 -103 c10 -12 10
-21 2 -40 -14 -30 -42 -32 -66 -6 -14 15 -15 24 -6 40 13 25 52 28 70 6z
m13788 -17 c18 -18 14 -56 -7 -68 -29 -15 -39 -13 -57 15 -16 24 -16 27 1 45
20 23 45 26 63 8z m2780 -14 c32 -22 30 -78 -3 -100 -61 -40 -128 43 -75 96
24 24 48 25 78 4z m1522 -53 c14 -26 3 -50 -26 -57 -42 -11 -72 34 -42 64 18
18 56 14 68 -7z m-13522 -128 c5 -17 -26 -29 -40 -15 -6 6 -7 15 -3 22 9 14
37 9 43 -7z m-2004 -45 c16 -26 -4 -53 -40 -53 -23 0 -30 5 -32 23 -2 13 -1
30 2 38 8 20 56 14 70 -8z m12734 -1 c4 -22 -27 -35 -38 -16 -10 15 7 42 24
36 6 -2 12 -11 14 -20z m-16331 -53 c8 -21 -13 -42 -28 -27 -13 13 -5 43 11
43 6 0 13 -7 17 -16z m2380 -38 c-4 -9 -11 -16 -17 -16 -17 0 -24 31 -9 41 18
11 34 -5 26 -25z m14540 8 c8 -22 -18 -37 -36 -20 -7 8 -10 19 -7 25 10 16 36
13 43 -5z m-1923 -10 c9 -8 16 -22 16 -29 0 -7 -7 -21 -16 -29 -30 -30 -74
-13 -74 29 0 42 44 59 74 29z m-7982 -41 c10 -9 18 -22 18 -29 0 -17 -28 -44
-45 -44 -7 0 -21 7 -29 16 -9 8 -16 22 -16 29 0 16 27 45 42 45 6 0 20 -7 30
-17z m12285 1 c9 -23 -13 -40 -32 -24 -12 10 -13 16 -4 26 15 18 28 18 36 -2z
m-6327 -14 c0 -21 -24 -28 -35 -10 -8 14 3 30 21 30 8 0 14 -9 14 -20z m3857
-56 c9 -23 -13 -40 -32 -24 -12 10 -13 16 -4 26 15 18 28 18 36 -2z m-6428
-58 c61 -39 98 -96 107 -164 4 -31 8 -63 9 -71 3 -22 -40 -103 -66 -127 -62
-56 -140 -91 -223 -99 -178 -18 -310 227 -200 372 36 48 58 67 109 92 56 28
70 30 151 26 56 -2 81 -9 113 -29z m2985 -12 c24 -9 21 -61 -4 -69 -39 -12
-66 35 -38 63 14 14 20 14 42 6z m-1136 -30 c42 -29 16 -104 -37 -104 -43 0
-68 72 -35 104 20 20 43 20 72 0z m-6560 -11 c5 -17 -26 -29 -40 -15 -6 6 -7
15 -3 22 9 14 37 9 43 -7z m10154 -140 c18 -16 24 -59 10 -79 -9 -13 -46 -34
-62 -34 -19 0 -60 48 -60 70 0 49 73 78 112 43z m265 -19 c8 -21 -13 -42 -28
-27 -13 13 -5 43 11 43 6 0 13 -7 17 -16z m-1433 -30 c23 -9 21 -61 -3 -74
-29 -15 -39 -13 -56 14 -29 43 8 80 59 60z m-7584 -62 c43 -34 17 -112 -37
-112 -30 0 -63 33 -63 64 0 25 41 66 65 66 7 0 23 -8 35 -18z m8538 -5 c8 -6
12 -25 10 -46 -2 -28 -9 -39 -32 -50 -25 -12 -31 -11 -55 6 -37 28 -39 65 -5
92 27 21 54 21 82 -2z m1902 -92 c26 -32 -13 -81 -47 -59 -35 22 -23 74 17 74
10 0 23 -7 30 -15z m-2447 -29 c7 -17 -18 -40 -33 -31 -5 3 -10 15 -10 26 0
23 35 27 43 5z m-14865 -129 c2 -12 -3 -17 -17 -17 -12 0 -21 6 -21 13 0 31
32 34 38 4z m15356 -173 c19 -19 21 -64 3 -88 -29 -40 -107 -9 -107 42 0 53
68 83 104 46z m-15278 -89 c31 -31 28 -61 -8 -88 -23 -17 -31 -19 -53 -9 -49
22 -51 85 -4 109 33 17 36 17 65 -12z m6052 9 c31 -22 30 -78 -2 -99 -64 -42
-130 41 -76 95 24 24 48 25 78 4z m11052 -79 c15 -18 10 -45 -12 -59 -33 -20
-69 20 -54 60 7 18 50 18 66 -1z m-14507 -137 c9 -11 17 -29 17 -40 0 -25 -44
-68 -70 -68 -25 0 -70 42 -70 65 0 66 79 93 123 43z m8544 -104 c-3 -3 -12 -4
-19 -1 -8 3 -5 6 6 6 11 1 17 -2 13 -5z m3041 -27 c4 -20 -25 -34 -40 -19 -15
15 -1 44 19 40 10 -2 19 -11 21 -21z m1897 -57 c0 -22 -39 -19 -43 3 -3 15 1
18 20 15 12 -2 23 -10 23 -18z m2383 -17 c5 -17 -26 -29 -40 -15 -6 6 -7 15
-3 22 9 14 37 9 43 -7z m-1884 -115 c21 -30 20 -54 -4 -78 -57 -57 -138 24
-88 88 18 21 75 15 92 -10z m-2054 -43 c0 -8 -7 -15 -15 -15 -8 0 -15 7 -15
15 0 8 7 15 15 15 8 0 15 -7 15 -15z m4400 0 c10 -12 10 -21 2 -40 -13 -29
-43 -33 -66 -9 -19 18 -19 20 -6 45 13 23 52 25 70 4z m-12672 -168 c4 -22
-27 -35 -38 -16 -10 15 7 42 24 36 6 -2 12 -11 14 -20z m3442 -41 c16 -20 9
-56 -12 -70 -40 -24 -80 44 -42 71 23 17 39 16 54 -1z m4502 -43 c10 -9 18
-22 18 -29 0 -17 -28 -44 -45 -44 -7 0 -21 7 -29 16 -9 8 -16 22 -16 29 0 16
27 45 42 45 6 0 20 -7 30 -17z m-10587 -60 c47 -34 56 -121 17 -156 -24 -21
-82 -27 -119 -12 -54 23 -82 104 -49 144 40 50 101 60 151 24z m15449 5 c16
-26 -4 -53 -40 -53 -25 0 -30 4 -32 29 -6 46 47 63 72 24z m-640 -31 c19 -26
19 -30 5 -55 -11 -20 -24 -28 -50 -30 -57 -5 -84 46 -48 92 27 34 64 32 93 -7z
m-4234 -47 c24 -24 25 -48 4 -78 -32 -46 -114 -17 -114 40 0 26 36 58 65 58
14 0 34 -9 45 -20z m-8919 -18 c28 -23 30 -73 4 -102 -27 -30 -78 -27 -105 7
-52 66 35 148 101 95z m11028 -166 c8 -10 8 -16 -2 -24 -17 -14 -42 2 -34 22
8 20 21 20 36 2z m-11791 -89 c2 -12 -3 -17 -17 -17 -12 0 -21 6 -21 13 0 31
32 34 38 4z m12262 -37 c0 -21 -24 -28 -35 -10 -8 14 3 30 21 30 8 0 14 -9 14
-20z m938 -136 c43 -30 17 -104 -36 -104 -57 0 -85 73 -40 104 12 9 29 16 38
16 9 0 26 -7 38 -16z m-16893 -74 c0 -8 -8 -16 -17 -18 -13 -2 -18 3 -18 18 0
15 5 20 18 18 9 -2 17 -10 17 -18z m14963 -26 c34 -23 27 -83 -10 -104 -25
-13 -31 -13 -55 0 -58 32 -35 115 32 119 6 1 21 -6 33 -15z m-1152 -65 c20
-22 13 -43 -19 -63 -39 -25 -78 44 -41 71 25 18 38 16 60 -8z m-14711 -69 c0
-8 -8 -16 -17 -18 -13 -2 -18 3 -18 18 0 15 5 20 18 18 9 -2 17 -10 17 -18z
m6919 -52 c15 -24 -3 -52 -37 -56 -33 -4 -53 28 -37 59 14 25 58 23 74 -3z
m8194 -61 c4 -20 -25 -34 -40 -19 -15 15 -1 44 19 40 10 -2 19 -11 21 -21z
m3712 -211 c6 -8 10 -25 8 -38 -6 -42 -78 -32 -78 11 0 37 46 55 70 27z
m-12940 -47 c0 -14 -5 -19 -17 -17 -26 5 -29 38 -4 38 15 0 21 -6 21 -21z
m2383 -5 c9 -10 -4 -34 -18 -34 -17 0 -28 17 -20 30 7 11 28 13 38 4z m1000
-110 c-6 -16 -29 -19 -38 -4 -4 6 -1 17 5 26 15 18 42 0 33 -22z m5638 -25
c11 -5 17 -14 14 -18 -2 -5 2 -14 10 -21 20 -16 19 -46 -1 -54 -26 -10 -47 -7
-66 11 -22 20 -23 51 -1 75 19 21 19 21 44 7z m2517 -51 c18 -18 14 -56 -6
-67 -41 -22 -85 45 -44 68 23 14 36 13 50 -1z m-3143 -33 c0 -27 -3 -30 -30
-30 -21 0 -31 5 -33 18 -6 33 6 49 35 45 24 -3 28 -8 28 -33z m2120 -295 c0
-8 -8 -16 -17 -18 -13 -2 -18 3 -18 18 0 15 5 20 18 18 9 -2 17 -10 17 -18z
m2383 -23 c2 -12 -3 -17 -17 -17 -15 0 -21 6 -21 21 0 25 33 22 38 -4z m-4634
-99 c24 -40 -44 -80 -71 -42 -17 23 -16 29 3 49 20 20 53 16 68 -7z m-644 -20
c27 -29 25 -54 -5 -83 -29 -30 -45 -31 -79 -4 -31 25 -34 61 -6 89 26 26 64
25 90 -2z m-4234 -63 c26 -27 26 -55 -1 -84 -20 -21 -66 -17 -87 9 -23 29 -23
41 3 74 26 33 53 33 85 1z m5258 -237 c16 -26 -4 -53 -40 -53 -23 0 -30 5 -32
23 -2 13 -1 30 2 38 8 20 56 14 70 -8z m-7014 -48 c40 -40 13 -100 -45 -100
-39 0 -55 16 -55 54 0 59 59 87 100 46z m4340 -20 c0 -21 -24 -28 -35 -10 -8
14 3 30 21 30 8 0 14 -9 14 -20z m-996 -241 c31 -25 34 -61 6 -89 -24 -24 -48
-25 -78 -4 -22 15 -30 57 -14 80 7 11 42 33 53 34 4 0 18 -9 33 -21z m5764 -6
c5 -18 -28 -29 -38 -12 -5 7 -6 17 -3 22 7 12 35 5 41 -10z m-6910 -80 c-4
-34 -32 -52 -55 -37 -27 17 -28 50 -2 68 31 21 61 4 57 -31z m395 -169 c-3 -8
-12 -14 -19 -14 -20 0 -30 30 -13 40 17 11 40 -7 32 -26z m7926 -9 c21 -20 17
-66 -9 -87 -30 -24 -46 -23 -75 7 -32 31 -31 50 0 81 27 26 55 26 84 -1z
m-5611 -427 c31 -31 -3 -87 -42 -72 -26 10 -32 55 -11 71 23 16 37 17 53 1z
m-1022 -319 c9 -15 -11 -33 -30 -26 -9 4 -13 13 -10 22 7 17 30 20 40 4z
m2382 -32 c2 -12 -3 -17 -17 -17 -15 0 -21 6 -21 21 0 25 33 22 38 -4z
m-14468 -268 c0 -14 -5 -19 -17 -17 -26 5 -29 38 -4 38 15 0 21 -6 21 -21z
m18595 -64 c14 -13 25 -31 25 -40 0 -21 -44 -65 -65 -65 -21 0 -65 44 -65 65
0 21 44 65 65 65 9 0 27 -11 40 -25z m-8381 -87 c15 -24 -3 -52 -37 -56 -33
-4 -53 28 -37 59 14 25 58 23 74 -3z m-9026 -25 c-5 -26 -38 -29 -38 -4 0 15
6 21 21 21 14 0 19 -5 17 -17z m11042 -3 c47 -47 -1 -124 -63 -101 -42 16 -51
80 -15 105 30 21 54 20 78 -4z m-10814 -86 c37 -55 -25 -117 -80 -80 -30 19
-35 65 -10 90 25 25 71 20 90 -10z m5934 -94 c47 -47 -1 -124 -63 -101 -42 16
-51 80 -15 105 30 21 54 20 78 -4z m8632 -17 c23 -21 23 -36 -2 -58 -22 -20
-44 -15 -60 14 -8 17 -7 24 10 41 24 24 28 25 52 3z m-3674 -90 c5 -17 -26
-29 -40 -15 -6 6 -7 15 -3 22 9 14 37 9 43 -7z m-2697 -23 c25 -14 25 -56 -1
-70 -42 -22 -82 34 -48 68 15 15 24 15 49 2z m-9083 -27 c16 -31 -4 -63 -41
-63 -25 0 -44 45 -27 65 17 20 57 19 68 -2z m5913 -13 c23 -13 25 -55 3 -64
-42 -16 -74 30 -42 62 15 15 15 15 39 2z m7478 -4 c8 -10 8 -16 -2 -24 -17
-14 -42 2 -34 22 8 20 21 20 36 2z m-9091 -23 c-5 -26 -38 -29 -38 -4 0 15 6
21 21 21 14 0 19 -5 17 -17z m3502 2 c0 -8 -7 -15 -15 -15 -8 0 -15 7 -15 15
0 8 7 15 15 15 8 0 15 -7 15 -15z m-3599 -115 c25 -14 25 -56 -1 -70 -42 -22
-82 34 -48 68 15 15 24 15 49 2z m2997 -6 c26 -18 29 -60 5 -86 -18 -20 -45
-23 -73 -8 -14 8 -21 5 -34 -14 -21 -33 -52 -41 -81 -22 -17 11 -25 26 -25 46
0 50 44 75 90 50 16 -8 21 -6 31 12 22 41 50 49 87 22z m6006 -35 c43 -51 31
-110 -29 -135 -89 -37 -164 80 -91 142 40 35 87 32 120 -7z m-4691 -3 c8 -19
-15 -37 -32 -26 -17 10 -7 40 13 40 7 0 16 -6 19 -14z m-1979 -22 c29 -29 12
-64 -31 -64 -27 0 -42 42 -23 65 16 19 35 19 54 -1z m10035 -40 c-12 -15 -39
-8 -39 11 0 18 22 25 38 12 9 -7 9 -13 1 -23z m-9239 12 c0 -20 -19 -31 -32
-18 -6 6 -7 15 -4 21 10 16 36 13 36 -3z m2877 -112 c8 -20 -17 -36 -34 -22
-10 8 -10 14 -2 24 15 18 28 18 36 -2z m-9099 -21 c-2 -10 -10 -18 -18 -18 -8
0 -16 8 -18 18 -2 12 3 17 18 17 15 0 20 -5 18 -17z m-233 -23 c4 -6 1 -17 -5
-26 -15 -18 -42 0 -33 22 6 16 29 19 38 4z m17120 -50 c0 -29 -4 -36 -23 -38
-43 -6 -69 37 -40 66 7 7 24 12 38 10 21 -3 25 -8 25 -38z m-11947 -77 c2 -8
-5 -13 -17 -13 -12 0 -21 6 -21 16 0 18 31 15 38 -3z m-721 -9 c8 -20 -17 -36
-34 -22 -10 8 -10 14 -2 24 15 18 28 18 36 -2z m6303 -9 c10 -12 10 -21 2 -40
-14 -31 -56 -34 -72 -5 -24 44 38 83 70 45z m-9102 -7 c18 -18 15 -56 -5 -66
-28 -15 -63 3 -63 32 0 37 43 59 68 34z m-2180 -121 c2 -12 -3 -17 -17 -17
-15 0 -21 6 -21 21 0 25 33 22 38 -4z m5522 -197 c24 -24 26 -57 3 -82 -21
-24 -58 -23 -83 2 -26 26 -25 54 2 80 28 25 52 26 78 0z m-138 -67 c37 -33 11
-103 -39 -103 -28 0 -63 33 -63 60 0 26 34 60 62 60 12 0 30 -7 40 -17z m1718
-33 c0 -21 -15 -27 -25 -10 -7 12 2 30 16 30 5 0 9 -9 9 -20z m11428 -47 c5
-18 -28 -29 -38 -12 -5 7 -6 17 -3 22 7 12 35 5 41 -10z m-6368 -118 c0 -19
-20 -29 -32 -17 -15 15 -2 43 17 36 8 -3 15 -12 15 -19z m-6234 -43 c23 -15
34 -50 25 -75 -23 -60 -111 -44 -111 20 0 47 50 79 86 55z m822 -99 c-4 -22
-22 -20 -26 1 -2 10 3 16 13 16 10 0 15 -7 13 -17z m1469 -19 c8 -21 -13 -42
-28 -27 -13 13 -5 43 11 43 6 0 13 -7 17 -16z m-9089 -21 c5 -17 -26 -29 -40
-15 -6 6 -7 15 -3 22 9 14 37 9 43 -7z m15005 -123 c13 -11 28 -31 31 -45 7
-29 -15 -79 -39 -89 -88 -33 -159 72 -90 132 32 27 64 28 98 2z m-3515 -42 c7
-7 12 -25 12 -42 0 -59 -59 -87 -100 -46 -24 24 -26 57 -3 82 18 20 73 24 91
6z m8202 -258 c40 -40 12 -102 -46 -102 -52 0 -75 76 -32 106 30 21 54 20 78
-4z m-19713 -54 c-4 -9 -11 -16 -17 -16 -17 0 -24 31 -9 41 18 11 34 -5 26
-25z m13988 -66 c0 -29 -4 -36 -23 -38 -43 -6 -69 37 -40 66 7 7 24 12 38 10
21 -3 25 -8 25 -38z m-643 3 c39 -35 13 -103 -39 -103 -57 0 -82 61 -43 100
24 24 57 26 82 3z m-4230 -60 c20 -18 24 -68 7 -79 -6 -3 -8 -15 -5 -27 7 -29
-11 -57 -38 -57 -29 0 -50 24 -43 50 3 10 -1 24 -9 31 -34 28 1 99 48 99 12 0
30 -7 40 -17z m-624 -109 c61 -69 -26 -178 -109 -134 -27 15 -51 67 -43 93 22
74 102 96 152 41z m4290 -36 c18 -18 14 -46 -7 -58 -38 -20 -71 13 -51 51 12
21 40 25 58 7z m-5673 -28 c0 -22 -29 -18 -33 3 -3 14 1 18 15 15 10 -2 18
-10 18 -18z m10963 -17 c5 -17 -26 -29 -40 -15 -6 6 -7 15 -3 22 9 14 37 9 43
-7z m-11933 -59 c19 -20 16 -43 -7 -58 -38 -23 -78 35 -42 61 23 17 29 16 49
-3z m5563 -61 c-5 -26 -38 -29 -38 -4 0 15 6 21 21 21 14 0 19 -5 17 -17z
m-4518 -48 c26 -32 -16 -74 -54 -53 -16 9 -22 49 -9 61 12 12 50 7 63 -8z
m-332 -37 c17 -17 15 -43 -4 -59 -31 -26 -70 25 -44 56 15 18 32 19 48 3z
m11702 -33 c0 -21 -19 -28 -36 -15 -10 9 -11 16 -3 26 12 15 39 8 39 -11z
m-11010 -55 c0 -11 -7 -20 -15 -20 -15 0 -21 21 -8 33 12 13 23 7 23 -13z
m-6596 -92 c16 -26 -4 -53 -40 -53 -23 0 -30 5 -32 23 -2 13 -1 30 2 38 8 20
56 14 70 -8z m668 5 c39 -35 11 -103 -43 -103 -29 0 -59 31 -59 60 0 50 64 78
102 43z m-1312 -23 c50 -50 -6 -120 -75 -94 -37 15 -38 82 -1 106 20 14 56 8
76 -12z m9241 -10 c25 -14 25 -56 -1 -70 -45 -24 -86 44 -42 69 21 13 20 13
43 1z m-9081 -30 c15 -28 -4 -60 -35 -60 -31 0 -50 32 -35 60 6 12 21 20 35
20 14 0 29 -8 35 -20z m14897 -126 c8 -21 -13 -42 -28 -27 -13 13 -5 43 11 43
6 0 13 -7 17 -16z m-2469 -27 c117 -77 103 -256 -23 -317 -128 -62 -276 40
-263 180 14 141 169 215 286 137z m-3958 -2 c10 -12 10 -21 2 -40 -14 -31 -56
-34 -72 -5 -24 44 38 83 70 45z m1017 -1 c8 -21 -13 -42 -28 -27 -13 13 -5 43
11 43 6 0 13 -7 17 -16z m-9089 -21 c5 -17 -26 -29 -40 -15 -6 6 -7 15 -3 22
9 14 37 9 43 -7z m12372 -23 c0 -13 -7 -20 -20 -20 -13 0 -20 7 -20 20 0 13 7
20 20 20 13 0 20 -7 20 -20z m-8163 -136 c8 -21 -13 -42 -28 -27 -13 13 -5 43
11 43 6 0 13 -7 17 -16z m3341 -96 c-14 -20 -13 -26 3 -56 17 -28 17 -33 4
-38 -26 -10 -65 23 -65 56 0 29 30 60 58 60 12 0 12 -4 0 -22z m10226 -64 c22
-21 20 -40 -6 -58 -39 -28 -84 20 -52 55 21 23 38 24 58 3z m-8591 -30 c9 -10
-4 -34 -18 -34 -17 0 -28 17 -20 30 7 11 28 13 38 4z m-8819 -60 c29 -29 12
-64 -31 -64 -32 0 -46 31 -27 58 18 26 37 28 58 6z m11046 -29 c7 -9 10 -25 6
-40 -6 -22 -11 -26 -39 -23 -25 2 -33 8 -35 26 -7 44 41 70 68 37z m-9090 -25
c14 -27 -19 -65 -48 -56 -32 11 -39 46 -13 67 24 20 47 16 61 -11z m2348 7 c2
-12 -3 -17 -17 -17 -12 0 -21 6 -21 13 0 31 32 34 38 4z m1877 -127 c0 -22
-29 -18 -33 3 -3 14 1 18 15 15 10 -2 18 -10 18 -18z m4763 -19 c3 -8 -1 -12
-9 -9 -7 2 -15 10 -17 17 -3 8 1 12 9 9 7 -2 15 -10 17 -17z m-4778 -15 c6 -8
10 -25 8 -38 -2 -19 -9 -23 -38 -23 -29 0 -36 4 -38 23 -4 28 14 52 38 52 10
0 23 -7 30 -14z m10218 -29 c2 -12 -3 -17 -17 -17 -12 0 -21 6 -21 13 0 31 32
34 38 4z m-8598 -57 c27 -27 26 -75 -2 -94 -30 -21 -54 -20 -78 4 -28 28 -25
64 6 89 33 26 49 26 74 1z m8650 -31 c0 -25 -33 -22 -38 4 -2 12 3 17 17 17
15 0 21 -6 21 -21z m-5076 5 c20 -8 21 -48 2 -63 -33 -28 -74 27 -44 57 14 14
20 14 42 6z m-10437 -40 c8 -21 -13 -42 -28 -27 -13 13 -5 43 11 43 6 0 13 -7
17 -16z m11481 -11 c5 -17 -26 -29 -40 -15 -6 6 -7 15 -3 22 9 14 37 9 43 -7z
m-11280 -10 c5 -17 -26 -29 -40 -15 -6 6 -7 15 -3 22 9 14 37 9 43 -7z m2179
1 c8 -21 -13 -42 -28 -27 -13 13 -5 43 11 43 6 0 13 -7 17 -16z m2041 -21 c-2
-10 -10 -18 -18 -18 -8 0 -16 8 -18 18 -2 12 3 17 18 17 15 0 20 -5 18 -17z
m-763 -67 c10 -15 14 -33 9 -50 -5 -20 -2 -26 10 -26 8 0 23 -11 32 -25 33
-51 -13 -107 -71 -85 -24 9 -41 47 -33 72 3 7 -8 21 -24 30 -52 33 -30 108 32
108 20 0 35 -8 45 -24z m7918 -32 c-6 -16 -29 -19 -38 -4 -4 6 -1 17 5 26 15
18 42 0 33 -22z m4531 4 c15 -25 -3 -52 -38 -56 -20 -3 -28 2 -35 20 -13 33 4
60 36 56 14 -2 31 -11 37 -20z m-11886 -35 c5 -17 -26 -29 -40 -15 -6 6 -7 15
-3 22 9 14 37 9 43 -7z m630 -30 c-4 -34 -32 -52 -55 -37 -27 17 -28 50 -2 68
31 21 61 4 57 -31z m1750 10 c5 -17 -26 -29 -40 -15 -6 6 -7 15 -3 22 9 14 37
9 43 -7z m-4978 -24 c9 -16 8 -25 -6 -40 -24 -26 -52 -24 -66 6 -8 19 -8 28 2
40 18 22 57 19 70 -6z m2624 -32 c22 -16 18 -55 -6 -71 -40 -24 -80 44 -42 71
10 7 21 13 24 13 3 0 14 -6 24 -13z m5954 -114 c5 -17 -26 -29 -40 -15 -6 6
-7 15 -3 22 9 14 37 9 43 -7z m-2978 -73 c8 -14 8 -26 0 -40 -19 -35 -80 -20
-80 20 0 40 61 55 80 20z m-1722 -42 c17 -17 15 -64 -4 -82 -35 -35 -94 -12
-94 37 0 41 15 57 55 57 17 0 36 -5 43 -12z m-3158 -138 c15 -28 -4 -60 -36
-60 -31 0 -54 41 -34 65 18 21 57 19 70 -5z m4314 4 c36 -35 9 -94 -43 -94
-35 0 -51 17 -51 55 0 17 5 36 12 43 17 17 64 15 82 -4z m-1287 -20 c8 -21
-13 -42 -28 -27 -13 13 -5 43 11 43 6 0 13 -7 17 -16z m10311 -1 c-2 -10 -10
-18 -18 -18 -8 0 -16 8 -18 18 -2 12 3 17 18 17 15 0 20 -5 18 -17z m766 -29
c29 -29 12 -64 -31 -64 -32 0 -46 31 -27 58 18 26 37 28 58 6z m-10455 -13
c17 -30 -8 -55 -42 -42 -29 11 -35 29 -15 49 18 18 46 15 57 -7z m9816 -16
c14 -13 25 -31 25 -38 0 -27 -35 -59 -65 -59 -30 0 -65 32 -65 59 0 19 45 63
65 63 9 0 27 -11 40 -25z m-7155 -25 c55 -55 -24 -136 -82 -83 -25 23 -23 68
4 87 30 21 54 20 78 -4z m663 -46 c-3 -8 -12 -14 -19 -14 -20 0 -30 30 -13 40
17 11 40 -7 32 -26z m2262 11 c30 -29 31 -46 8 -73 -30 -34 -59 -37 -88 -8
-14 14 -25 32 -25 41 0 21 44 65 65 65 9 0 27 -11 40 -25z m-6277 -1 c26 -18
30 -65 6 -88 -23 -24 -70 -20 -88 6 -23 32 -20 54 10 77 32 25 43 26 72 5z
m-5083 -14 c0 -8 -8 -16 -17 -18 -13 -2 -18 3 -18 18 0 15 5 20 18 18 9 -2 17
-10 17 -18z m2282 -26 c9 -23 -13 -40 -32 -24 -12 10 -13 16 -4 26 15 18 28
18 36 -2z m-1439 -32 c43 -56 -37 -123 -90 -75 -44 39 -2 111 57 96 11 -3 26
-12 33 -21z m5736 -4 c16 -26 -4 -53 -40 -53 -23 0 -30 5 -32 23 -7 47 47 69
72 30z m-6409 -73 c0 -27 -3 -30 -30 -30 -21 0 -31 5 -33 18 -6 33 6 49 35 45
24 -3 28 -8 28 -33z m3513 -12 c-2 -10 -10 -18 -18 -18 -8 0 -16 8 -18 18 -2
12 3 17 18 17 15 0 20 -5 18 -17z m535 -29 c-3 -8 -12 -14 -19 -14 -20 0 -30
30 -13 40 17 11 40 -7 32 -26z m6295 -72 c28 -37 -2 -102 -48 -102 -27 0 -60
35 -60 63 0 59 72 85 108 39z m-9098 -12 c11 -11 20 -29 20 -40 0 -29 -36 -60
-69 -60 -31 0 -61 30 -61 60 0 53 71 79 110 40z m9491 -30 c28 -16 25 -58 -6
-72 -19 -8 -28 -8 -40 2 -20 17 -19 57 3 69 21 13 20 13 43 1z m-628 -38 c23
-20 22 -57 -3 -82 -24 -24 -48 -25 -78 -4 -36 25 -25 93 18 106 19 6 40 -1 63
-20z m-9535 -60 c28 -37 -2 -102 -48 -102 -27 0 -60 35 -60 63 0 59 72 85 108
39z m5296 7 c31 -25 34 -61 6 -89 -24 -24 -48 -25 -78 -4 -33 23 -28 83 8 101
33 17 33 16 64 -8z m-413 -40 c29 -29 23 -79 -13 -99 -25 -13 -31 -13 -55 0
-53 30 -32 120 27 120 11 0 29 -9 41 -21z m-2955 3 c23 -15 35 -51 24 -72 -11
-20 -40 -40 -59 -40 -18 0 -51 39 -51 60 0 40 55 73 86 52z m-1062 -11 c3 -5
-1 -14 -8 -20 -16 -13 -32 2 -21 19 8 12 22 13 29 1z m11350 -110 c25 -28 17
-72 -16 -91 -25 -13 -31 -13 -55 0 -54 30 -34 110 27 110 15 0 35 -9 44 -19z
m-1154 -75 c0 -35 -25 -52 -55 -38 -31 14 -32 46 -3 66 27 19 58 5 58 -28z
m2570 -6 c41 -41 13 -110 -46 -110 -51 0 -76 78 -34 112 29 23 55 23 80 -2z
m-6922 -27 c-2 -10 -10 -18 -18 -18 -8 0 -16 8 -18 18 -2 12 3 17 18 17 15 0
20 -5 18 -17z m-2410 -46 c2 -10 -3 -17 -12 -17 -18 0 -29 16 -21 31 9 14 29
6 33 -14z m3587 13 c4 -6 1 -18 -6 -26 -11 -13 -14 -13 -27 0 -8 8 -11 19 -8
25 9 14 33 14 41 1z m6733 -13 c2 -12 -3 -17 -17 -17 -15 0 -21 6 -21 21 0 25
33 22 38 -4z m-10763 -6 c12 -40 -20 -70 -56 -51 -18 10 -26 50 -12 63 14 15
62 7 68 -12z m-2023 -58 c39 -35 11 -103 -43 -103 -35 0 -59 24 -59 57 0 55
62 83 102 46z m9621 -29 c-6 -16 -29 -19 -38 -4 -4 6 -1 17 5 26 15 18 42 0
33 -22z m-13849 -36 c21 -29 20 -57 -1 -80 -34 -38 -103 -11 -103 40 0 57 73
85 104 40z m2736 -38 c0 -19 -20 -27 -33 -13 -8 7 11 33 24 33 5 0 9 -9 9 -20z
m6546 -68 c24 -16 35 -51 23 -74 -16 -30 -28 -38 -61 -38 -29 0 -58 31 -58 62
0 40 63 73 96 50z m-1715 -73 c36 -36 6 -99 -48 -99 -27 0 -63 33 -63 58 0 56
70 82 111 41z m573 -1 c15 -24 -3 -52 -37 -56 -33 -4 -53 28 -37 59 14 25 58
23 74 -3z m-5558 -137 c-9 -14 -33 -14 -41 -1 -4 6 -1 18 6 26 11 13 14 13 27
0 8 -8 11 -19 8 -25z m5949 -41 c0 -8 -8 -16 -17 -18 -13 -2 -18 3 -18 18 0
15 5 20 18 18 9 -2 17 -10 17 -18z m7626 -40 c41 -22 8 -91 -35 -74 -26 10
-32 55 -11 71 22 16 21 16 46 3z m-11713 -43 c2 -12 -3 -17 -17 -17 -12 0 -21
6 -21 13 0 31 32 34 38 4z m12574 -44 c24 -21 23 -58 -2 -83 -24 -24 -48 -25
-78 -4 -26 18 -30 65 -6 88 20 21 63 20 86 -1z m-6978 -39 c22 -21 20 -40 -6
-58 -19 -13 -25 -14 -43 -2 -26 18 -30 40 -10 60 21 20 39 20 59 0z m-8461
-15 c27 -15 37 -28 37 -52 0 -22 -43 -67 -65 -67 -20 0 -65 44 -65 63 0 21 39
67 56 67 9 0 25 -5 37 -11z m7823 -14 c29 -29 26 -58 -8 -87 -27 -24 -44 -23
-73 7 -31 30 -31 52 -3 82 28 30 53 29 84 -2z m-5756 -29 c19 -23 8 -61 -18
-64 -44 -7 -67 32 -36 62 19 20 38 20 54 2z m-3216 -22 c21 -21 20 -37 -3 -58
-15 -14 -24 -15 -39 -7 -28 15 -33 35 -16 60 18 25 37 27 58 5z m5757 -114
c13 -7 19 -21 19 -45 0 -37 -20 -55 -62 -55 -33 0 -48 18 -48 57 0 46 44 67
91 43z m8957 -13 c2 -11 -3 -17 -16 -17 -24 0 -32 8 -25 26 7 20 37 13 41 -9z
m2380 -20 c2 -12 -3 -17 -17 -17 -12 0 -21 6 -21 13 0 31 32 34 38 4z m-16691
-33 c7 -18 -17 -38 -31 -24 -11 11 -1 40 14 40 6 0 13 -7 17 -16z m4218 -34
c0 -8 -8 -16 -17 -18 -13 -2 -18 3 -18 18 0 15 5 20 18 18 9 -2 17 -10 17 -18z
m5805 5 c25 -30 -11 -72 -51 -60 -43 14 -30 75 16 75 12 0 28 -7 35 -15z
m-8091 -93 c13 -24 -4 -52 -33 -52 -26 0 -40 23 -31 51 8 24 51 25 64 1z
m4991 -12 c0 -13 -7 -20 -20 -20 -19 0 -27 20 -13 33 13 14 33 6 33 -13z
m2074 -87 c-2 -29 1 -31 42 -38 71 -10 56 -31 -28 -39 -40 -3 -84 -7 -97 -8
-41 -5 -35 20 8 33 45 14 45 13 31 39 -14 26 -2 52 24 48 17 -2 21 -9 20 -35z
m8772 -21 c26 -17 35 -51 22 -80 -10 -21 -21 -28 -50 -30 -30 -3 -40 1 -53 21
-18 29 -12 72 14 87 19 11 52 13 67 2z m-1142 -74 c16 -26 -4 -53 -40 -53 -25
0 -30 4 -32 29 -6 46 47 63 72 24z m-7396 -24 c7 -4 19 2 26 11 8 11 20 16 30
12 22 -9 20 -34 -4 -47 -19 -10 -19 -12 -4 -42 13 -24 13 -32 3 -38 -8 -6 -22
4 -39 28 -15 21 -39 48 -53 61 -32 29 -26 60 7 36 11 -8 27 -18 34 -21z m-98
-12 c62 -31 113 -95 125 -158 6 -34 4 -41 -21 -61 -53 -42 -158 -68 -279 -68
-66 0 -125 5 -147 13 -37 13 -38 14 -38 65 0 92 61 188 139 219 79 32 140 30
221 -10z m514 32 c10 -4 16 -18 16 -41 0 -33 -2 -35 -27 -30 -37 7 -63 -9 -63
-38 0 -21 5 -24 43 -27 41 -3 42 -4 42 -38 0 -34 -1 -35 -42 -38 l-42 -3 -3
-107 -3 -107 -37 -3 -38 -3 0 110 0 111 -31 0 c-29 0 -30 2 -27 38 3 32 7 37
31 40 24 3 27 7 27 43 0 57 42 99 98 99 22 0 47 -3 56 -6z m1248 -6 c28 -23
29 -48 3 -73 -29 -30 -65 -22 -79 18 -17 47 37 85 76 55z m140 -113 l3 -116
57 51 c48 43 62 50 97 50 23 0 41 -4 41 -8 0 -4 -29 -36 -65 -72 l-64 -64 64
-72 c36 -40 65 -75 65 -78 0 -3 -19 -6 -42 -6 -38 0 -48 6 -100 57 l-58 57 0
-57 0 -58 -37 3 -38 3 -3 213 -2 212 39 0 40 0 3 -115z m335 79 c8 -21 -13
-42 -28 -27 -13 13 -5 43 11 43 6 0 13 -7 17 -16z m-5557 -189 l0 -195 -24 0
c-13 0 -26 5 -28 12 -3 8 -11 7 -28 -5 -30 -21 -82 -22 -120 -2 -41 21 -64 69
-64 135 0 33 7 68 17 87 32 61 120 82 171 42 l26 -20 0 70 c0 69 1 71 25 71
l25 0 0 -195z m1960 0 l0 -195 -25 0 c-16 0 -25 6 -25 16 0 13 -5 12 -26 -5
-55 -43 -151 -14 -180 54 -31 76 -9 170 48 205 43 26 98 26 132 -1 l26 -20 0
70 c0 69 1 71 25 71 l25 0 0 -195z m250 125 l0 -70 33 20 c127 78 251 -94 163
-227 -36 -56 -104 -69 -163 -33 -27 16 -33 17 -33 5 0 -8 -9 -15 -20 -15 -19
0 -20 7 -20 195 0 188 1 195 20 195 18 0 20 -7 20 -70z m790 50 c0 -5 -12 -26
-26 -47 -14 -21 -28 -51 -31 -66 -4 -19 -11 -27 -22 -24 -17 3 -17 6 -7 49 5
22 2 27 -16 30 -15 2 -23 10 -23 23 0 23 34 33 46 13 7 -10 14 -7 35 14 26 25
44 29 44 8z m-2878 -7 c24 -21 23 -58 -2 -83 -24 -24 -48 -25 -78 -4 -26 18
-30 65 -6 88 20 21 63 20 86 -1z m573 -13 c0 -18 -6 -26 -23 -28 -13 -2 -25 3
-28 12 -10 26 4 48 28 44 17 -2 23 -10 23 -28z m5929 8 c15 -24 -3 -52 -37
-56 -32 -4 -49 23 -36 56 7 18 15 23 35 20 15 -2 32 -11 38 -20z m-7670 -41
c38 -27 -2 -95 -41 -71 -24 15 -28 48 -8 68 20 19 26 20 49 3z m-2440 -39 c15
-24 -3 -52 -37 -56 -33 -4 -53 28 -37 59 14 25 58 23 74 -3z m3753 -8 c37 -22
60 -61 64 -110 l4 -35 -112 -3 c-127 -3 -136 -10 -84 -63 34 -33 75 -38 122
-14 31 17 49 13 49 -9 0 -20 -62 -46 -107 -46 -86 0 -145 61 -145 150 0 116
115 188 209 130z m278 6 c33 -14 46 -38 26 -50 -5 -3 -22 1 -37 9 -54 28 -120
10 -113 -30 3 -13 25 -25 74 -41 38 -12 75 -30 82 -40 22 -30 16 -78 -13 -105
-52 -49 -222 -22 -194 31 10 19 11 19 43 0 56 -35 127 -21 127 24 0 24 0 24
-103 61 -75 26 -91 83 -36 129 35 30 90 34 144 12z m393 -6 c26 -16 32 -17 32
-5 0 8 9 15 20 15 19 0 20 -7 20 -164 0 -184 -6 -203 -76 -226 -74 -25 -186 9
-164 49 9 18 11 18 50 -1 46 -23 97 -19 124 10 17 20 35 87 20 81 -5 -3 -26
-13 -47 -24 -35 -18 -41 -18 -79 -5 -49 18 -78 53 -87 106 -11 65 2 114 43
151 43 39 93 44 144 13z m357 -5 c24 -23 25 -30 25 -145 l0 -120 -25 0 -25 0
0 108 c0 59 -4 114 -9 122 -13 19 -73 18 -105 -3 -25 -17 -26 -20 -26 -122 l0
-105 -25 0 -25 0 0 140 0 140 25 0 c15 0 25 -6 25 -15 0 -12 6 -11 33 5 46 28
102 26 132 -5z m292 5 c37 -22 60 -61 65 -110 l3 -35 -112 -3 c-123 -3 -130
-7 -93 -55 28 -35 81 -45 127 -23 19 9 39 14 44 11 34 -22 -31 -65 -98 -65
-86 0 -145 61 -145 150 0 116 115 188 209 130z m953 -90 c24 -60 46 -110 50
-110 4 0 25 46 47 103 36 90 43 102 67 105 14 2 26 1 26 -1 0 -11 -142 -343
-155 -363 -16 -25 -80 -43 -96 -27 -16 16 1 42 29 45 18 2 31 13 41 32 12 26
11 35 -14 100 -15 39 -41 100 -57 135 -31 67 -31 91 1 91 15 0 28 -22 61 -110z
m1410 94 c0 -14 2 -14 22 0 25 18 84 21 93 6 11 -18 -34 -70 -60 -70 -41 0
-55 -34 -55 -133 l0 -88 -37 3 -38 3 -3 134 c-1 74 0 141 2 148 8 19 76 17 76
-3z m320 1 c36 -19 70 -82 70 -130 l0 -35 -100 0 c-55 0 -100 -3 -100 -7 0 -3
7 -15 17 -25 18 -20 73 -24 105 -7 17 9 25 7 46 -14 l25 -25 -34 -22 c-28 -17
-46 -20 -101 -18 -58 3 -71 8 -97 32 -17 16 -36 45 -42 64 -13 39 -5 106 17
140 37 57 131 79 194 47z m330 -20 c30 -29 54 -91 48 -123 -3 -14 -20 -18
-108 -22 l-105 -5 23 -22 c24 -25 70 -30 104 -12 16 9 24 7 44 -12 31 -29 30
-34 -10 -53 -47 -22 -133 -21 -172 3 -85 52 -85 203 1 262 46 31 135 23 175
-16z m157 24 c8 -8 17 -8 31 0 11 6 39 11 61 11 70 0 131 -70 131 -150 0 -84
-61 -150 -138 -150 -26 0 -54 5 -62 10 -13 8 -16 -1 -20 -58 l-5 -67 -37 -3
-38 -3 0 210 0 211 33 0 c18 0 38 -5 44 -11z m335 -80 c2 -51 1 -119 0 -151
l-4 -59 -36 3 -37 3 -3 134 c-1 74 0 141 2 148 3 7 21 13 40 13 l35 0 3 -91z
m-4402 -59 l0 -140 -25 0 -25 0 0 140 0 140 25 0 25 0 0 -140z m10515 110 c0
-8 -8 -16 -17 -18 -13 -2 -18 3 -18 18 0 15 5 20 18 18 9 -2 17 -10 17 -18z
m-11842 -136 c-3 -8 -12 -14 -19 -14 -20 0 -30 30 -13 40 17 11 40 -7 32 -26z
m4067 0 c-16 -41 -78 -103 -125 -125 -50 -23 -151 -25 -203 -4 -34 15 -112 81
-112 95 0 4 51 4 114 2 123 -5 230 12 296 48 19 10 36 17 38 15 1 -1 -2 -15
-8 -31z m5288 -71 c5 -17 -26 -29 -40 -15 -6 6 -7 15 -3 22 9 14 37 9 43 -7z
m-13238 -83 c0 -21 -24 -28 -35 -10 -8 14 3 30 21 30 8 0 14 -9 14 -20z m5818
8 c34 -34 -6 -90 -48 -68 -35 19 -20 80 20 80 9 0 21 -5 28 -12z m-3438 -28
c0 -21 -24 -28 -35 -10 -8 14 3 30 21 30 8 0 14 -9 14 -20z m12268 -152 c7 -7
12 -27 12 -45 0 -43 -38 -71 -78 -57 -63 22 -46 114 21 114 18 0 38 -5 45 -12z
m-8450 -110 c34 -34 -6 -90 -48 -68 -25 13 -26 55 -2 69 23 14 36 13 50 -1z
m1720 -41 c2 -12 -3 -17 -17 -17 -12 0 -21 6 -21 13 0 31 32 34 38 4z m-9790
-125 c4 -28 -14 -52 -38 -52 -26 0 -43 26 -36 55 6 22 11 26 39 23 25 -2 33
-8 35 -26z m18890 -39 c-2 -10 -10 -18 -18 -18 -8 0 -16 8 -18 18 -2 12 3 17
18 17 15 0 20 -5 18 -17z m-7688 -93 c55 -55 -22 -132 -85 -86 -11 8 -18 26
-18 46 0 56 62 81 103 40z m-4155 -20 c4 -6 1 -17 -5 -26 -15 -18 -42 0 -33
22 6 16 29 19 38 4z m2382 -26 c7 -20 -17 -37 -34 -23 -15 13 -6 39 13 39 8 0
17 -7 21 -16z m-7340 -120 c8 -21 -13 -42 -28 -27 -13 13 -5 43 11 43 6 0 13
-7 17 -16z"/>
<path d="M11671 18174 c0 -11 3 -14 6 -6 3 7 2 16 -1 19 -3 4 -6 -2 -5 -13z"/>
<path d="M11232 17977 c-18 -51 -14 -63 10 -31 12 16 27 32 33 37 6 4 5 10 -5
17 -22 15 -25 13 -38 -23z"/>
<path d="M11187 17927 c-3 -8 -1 -20 5 -28 8 -11 9 -11 5 3 -3 9 -1 18 6 21 8
2 8 5 0 10 -6 4 -13 1 -16 -6z"/>
<path d="M11136 17878 c-8 -39 -6 -41 22 -17 21 17 22 20 9 34 -21 21 -24 19
-31 -17z"/>
<path d="M9865 17485 c-19 -15 -24 -24 -15 -24 8 0 29 11 45 24 19 16 24 25
15 25 -8 0 -28 -11 -45 -25z"/>
<path d="M10510 17455 c0 -8 9 -15 20 -15 13 0 18 5 14 15 -4 8 -12 15 -20 15
-8 0 -14 -7 -14 -15z"/>
<path d="M10450 17410 c0 -6 9 -21 20 -33 18 -18 22 -20 30 -7 14 22 12 34 -4
21 -11 -10 -16 -8 -21 8 -7 22 -25 29 -25 11z"/>
<path d="M9905 17370 c-3 -5 -1 -10 4 -10 6 0 11 5 11 10 0 6 -2 10 -4 10 -3
0 -8 -4 -11 -10z"/>
<path d="M10528 17365 c-7 -7 14 -55 25 -55 4 0 7 6 7 14 0 8 6 17 13 19 9 4
8 8 -3 16 -17 12 -34 14 -42 6z"/>
<path d="M10436 17305 c4 -8 10 -12 15 -9 11 6 2 24 -11 24 -5 0 -7 -7 -4 -15z"/>
<path d="M10258 17177 c16 -17 19 -26 11 -34 -8 -8 -8 -13 0 -18 7 -3 10 -1 9
6 -2 7 2 13 9 14 6 0 15 4 20 9 4 5 3 6 -4 3 -6 -4 -20 4 -31 18 -11 14 -23
25 -28 25 -4 0 2 -10 14 -23z"/>
<path d="M10240 17101 c0 -6 4 -13 10 -16 6 -3 7 1 4 9 -7 18 -14 21 -14 7z"/>
<path d="M10505 1288 c-28 -16 -35 -28 -35 -64 0 -62 75 -89 120 -44 27 27 25
66 -5 95 -26 27 -49 31 -80 13z"/>
<path d="M10687 1269 c-20 -28 -8 -61 27 -74 22 -7 30 -5 48 13 18 18 20 26
12 49 -13 38 -65 45 -87 12z"/>
<path d="M7255 1228 c-78 -46 -65 -183 19 -204 14 -3 40 2 60 11 l36 17 0 73
c0 57 -4 75 -18 88 -25 22 -72 30 -97 15z"/>
<path d="M9211 1226 c-31 -17 -50 -53 -51 -94 -1 -92 88 -141 153 -84 13 12
17 31 17 84 0 66 -1 69 -32 88 -38 23 -54 24 -87 6z"/>
<path d="M9675 1225 c-40 -22 -45 -31 -45 -93 0 -67 11 -87 55 -102 67 -22
115 20 115 101 0 81 -62 127 -125 94z"/>
<path d="M7575 1228 c-27 -15 -44 -39 -45 -60 0 -16 11 -18 90 -18 50 0 90 2
90 5 0 17 -33 66 -49 75 -25 13 -61 12 -86 -2z"/>
<path d="M8274 1230 c-55 -22 -74 -122 -33 -174 26 -33 84 -36 123 -5 22 18
26 28 26 75 0 68 -10 89 -51 103 -37 13 -37 13 -65 1z"/>
<path d="M8895 1228 c-27 -15 -44 -39 -45 -60 0 -16 11 -18 90 -18 50 0 90 2
90 5 0 17 -33 66 -49 75 -25 13 -61 12 -86 -2z"/>
<path d="M11576 1195 c-27 -28 -18 -35 45 -35 l61 0 -14 23 c-19 28 -69 34
-92 12z"/>
<path d="M11883 1198 c-27 -36 -25 -38 36 -38 34 0 61 4 61 9 0 33 -76 56 -97
29z"/>
<path d="M12213 1198 c-12 -6 -26 -24 -32 -39 -32 -92 92 -149 129 -60 16 39
0 83 -36 100 -29 13 -32 13 -61 -1z"/>
<path d="M11726 19835 c-3 -9 2 -12 16 -10 29 6 32 12 9 18 -11 3 -22 -1 -25
-8z"/>
<path d="M11667 19799 c-4 -16 -11 -19 -29 -15 -13 3 -17 3 -9 0 10 -5 11 -8
1 -14 -7 -5 0 -7 18 -6 17 1 37 7 44 14 11 11 10 12 -6 6 -16 -6 -17 -5 -7 14
7 12 8 22 3 22 -6 0 -12 -9 -15 -21z"/>
<path d="M11601 19794 c0 -11 3 -14 6 -6 3 7 2 16 -1 19 -3 4 -6 -2 -5 -13z"/>
<path d="M11716 19781 c-3 -5 1 -11 9 -15 8 -3 15 -1 15 4 0 13 -18 22 -24 11z"/>
<path d="M11504 19699 c-3 -6 -2 -15 3 -20 5 -5 9 -1 9 11 0 23 -2 24 -12 9z"/>
<path d="M11426 19687 c3 -10 9 -15 12 -12 3 3 0 11 -7 18 -10 9 -11 8 -5 -6z"/>
<path d="M11395 19470 c3 -5 8 -10 11 -10 2 0 4 5 4 10 0 6 -5 10 -11 10 -5 0
-7 -4 -4 -10z"/>
<path d="M11338 19433 c7 -3 16 -2 19 1 4 3 -2 6 -13 5 -11 0 -14 -3 -6 -6z"/>
<path d="M11600 19430 c0 -5 5 -10 11 -10 5 0 7 5 4 10 -3 6 -8 10 -11 10 -2
0 -4 -4 -4 -10z"/>
<path d="M11590 19400 c13 -8 13 -10 -2 -10 -11 0 -15 -5 -12 -15 4 -10 0 -15
-14 -15 -24 0 -38 -17 -40 -47 0 -15 4 -20 14 -16 10 4 11 9 5 17 -12 14 2 41
16 33 14 -9 57 39 48 52 -3 6 -12 11 -18 11 -7 0 -6 -4 3 -10z"/>
<path d="M11543 19256 c7 -14 13 -23 15 -21 7 6 -9 45 -18 45 -4 0 -3 -11 3
-24z"/>
<path d="M11587 19204 c-7 -13 19 -47 33 -42 8 2 5 12 -8 27 -10 14 -21 20
-25 15z"/>
<path d="M11898 19133 c6 -2 18 -2 25 0 6 3 1 5 -13 5 -14 0 -19 -2 -12 -5z"/>
<path d="M12090 18970 c0 -5 7 -10 15 -10 8 0 15 5 15 10 0 6 -7 10 -15 10 -8
0 -15 -4 -15 -10z"/>
</g>
</svg>
